<?xml version="1.0" encoding="utf-8"?>
<!-- Generator: Adobe Illustrator 23.0.1, SVG Export Plug-In . SVG Version: 6.00 Build 0)  -->
<svg version="1.1" id="Layer_1" xmlns="http://www.w3.org/2000/svg" xmlns:xlink="http://www.w3.org/1999/xlink" x="0px" y="0px"
	 viewBox="0 0 106.6 114.8" style="enable-background:new 0 0 106.6 114.8;" xml:space="preserve">
<style type="text/css">
	.st0{fill:#06425E;}
</style>
<title>grey-c</title>
<path class="st0" d="M101.7,22.1C82.2-2.3,46.7-6.3,22.3,13.2s-28.4,55.1-8.9,79.5s55.1,28.4,79.5,8.9c3.3-2.6,6.2-5.6,8.8-8.8
	C111,81.2,102.6,64,87.7,64l0,0c-5.6,0-10.9,2.6-14.2,7.1c-3.7,5.1-9.7,8.1-16,8c-12-0.3-21.5-10.2-21.2-22.2
	c0.2-11.6,9.6-21,21.2-21.2c6.3-0.1,12.3,3,16,8.1c3.3,4.5,8.6,7.1,14.2,7.1l0,0C102.7,50.9,111,33.7,101.7,22.1z"/>
</svg>
